<?xml version="1.0"?>
<svg xmlns="http://www.w3.org/2000/svg" xmlns:xlink="http://www.w3.org/1999/xlink" version="1.1" id="Capa_1" x="0px" y="0px" viewBox="0 0 512 512" style="enable-background:new 0 0 512 512;" xml:space="preserve" width="512px" height="512px" class=""><g><polygon style="fill:#235C81;" points="322.333,417 282.333,322 175,322 190,512 282.333,512 " data-original="#235C81"/><polygon style="fill:#174461;" points="444.667,417 404.667,322 282.333,322 282.333,512 404.667,512 " data-original="#174461" class=""/><rect x="404.67" y="322" style="fill:#092A40;" width="107.33" height="190" data-original="#092A40" class=""/><polygon style="fill:#FFF5D9;" points="198.923,357 116.782,294.728 36.209,341.247 131.209,505.792 211.782,459.273 " data-original="#FFF5D9"/><polygon style="fill:#AD396B;" points="291.877,303.333 209.736,241.061 116.782,294.728 211.782,459.272 304.736,405.606 " data-original="#AD396B"/><polygon style="fill:#5B3256;" points="397.82,242.167 315.679,179.894 209.736,241.061 304.736,405.606 410.679,344.439 " data-original="#5B3256" class=""/><rect x="314.662" y="181.659" transform="matrix(-0.5 -0.866 0.866 -0.5 410.7001 707.7604)" style="fill:#3A2F4D;" width="189.996" height="107.328" data-original="#3A2F4D" class=""/><polygon style="fill:#FFF5D9;" points="155,313.077 52.728,300.218 6.208,380.791 170.753,475.791 217.272,395.218 " data-original="#FFF5D9"/><polygon style="fill:#FF755C;" points="208.667,220.123 106.394,207.264 52.728,300.218 217.272,395.218 270.939,302.264 " data-original="#FF755C"/><polygon style="fill:#FF4181;" points="269.833,114.18 167.561,101.321 106.394,207.264 270.939,302.264 332.106,196.321 " data-original="#FF4181"/><rect x="181.667" y="48.679" transform="matrix(-0.866 -0.5 0.5 -0.866 465.0898 329.3099)" style="fill:#D63D76;" width="189.996" height="107.328" data-original="#D63D76" class=""/><polygon style="fill:#FFE290;" points="65,297 95,512 190,512 190,337 " data-original="#FFE290"/><polygon style="fill:#FFF5D9;" points="0,337 0,512 95,512 95,297 " data-original="#FFF5D9"/><polygon style="fill:#FFB14E;" points="190,229.667 65,189.667 95,337 190,337 " data-original="#FFB14E"/><polygon style="fill:#FFCE47;" points="0,229.667 0,337 95,337 95,189.667 " data-original="#FFCE47"/><polygon style="fill:#FF9356;" points="190,107.333 65,67.333 95,229.667 190,229.667 " data-original="#FF9356"/><polygon style="fill:#FFB14E;" points="0,107.333 0,229.667 95,229.667 95,67.333 " data-original="#FFB14E"/><polygon style="fill:#FF755C;" points="95,0 65,53.667 95,107.333 190,107.333 190,0 " data-original="#FF755C"/><rect style="fill:#FF9356;" width="95" height="107.33" data-original="#FF9356"/></g> </svg>
